<svg width="16" height="17" viewBox="0 0 16 17" fill="none" xmlns="http://www.w3.org/2000/svg">
<path d="M2 14.5918H14V12H16V15H15.9844V15.5039C15.9844 15.9839 15.5997 16.3916 15.0957 16.3916H0.887695C0.407827 16.3914 0 15.9838 0 15.5039V12H2V14.5918ZM7.99219 0C8.49599 0.000100841 8.90412 0.407887 8.9043 0.887695V8.9043L11.9043 6.21582C12.2642 5.90416 12.8398 5.92798 13.1758 6.31152C13.4877 6.67144 13.4638 7.24752 13.0801 7.55957L8.5918 11.5684C8.23182 11.8801 7.72751 11.8803 7.3916 11.5684L2.9043 7.55957C2.52033 7.24756 2.49604 6.67151 2.83203 6.31152C3.14408 5.92783 3.72017 5.90394 4.08008 6.21582L7.10352 8.9043V0.887695C7.10368 0.407827 7.48829 0 7.99219 0Z" fill="#555555"/>
</svg>
