<svg width="144" height="144" viewBox="0 0 144 144" fill="none" xmlns="http://www.w3.org/2000/svg">
<rect width="144" height="144" rx="72" fill="#171717"/>
<path d="M94.5596 62.5551H120.494L132 51H38.1755C31.9922 51 26.789 55.227 25.2805 60.9649C25.142 61.485 25.0376 62.0158 24.9652 62.5573C24.8821 63.1566 24.8395 63.7686 24.8395 64.3936C24.8395 65.0185 24.8821 65.605 24.9566 66.1957C25.0313 66.7478 25.142 67.2936 25.2805 67.8222C26.4311 72.2012 29.8296 75.7861 34.125 77.1623C36.1619 77.815 38.3437 77.8021 40.4681 77.8108C43.1165 77.8214 45.7734 77.7679 48.4176 77.7679C48.9184 77.7679 49.3722 77.9712 49.7003 78.3008C49.8217 78.4229 49.9283 78.5663 50.0113 78.7182C50.0668 78.8188 50.1115 78.9301 50.1498 79.0435C50.2052 79.2126 50.233 79.3945 50.233 79.585C50.233 79.754 50.2116 79.9146 50.1648 80.0665C50.1094 80.2613 50.0263 80.4432 49.9134 80.6038C49.8964 80.6294 49.8793 80.653 49.8601 80.6765C49.8132 80.7386 49.7322 80.837 49.6769 80.8906C49.6321 80.9334 49.5852 80.9783 49.5341 81.0211C49.4744 81.064 49.417 81.1045 49.353 81.1474C49.3487 81.1474 49.3487 81.1517 49.3445 81.1517C49.223 81.2244 49.0973 81.2864 48.9546 81.3293C48.7862 81.3806 48.6052 81.4085 48.4154 81.4085H23.5419L12 93H48.4176C54.6008 93 59.8039 88.7688 61.3126 83.0308C61.451 82.5022 61.5596 81.9586 61.6363 81.4042C61.7131 80.8135 61.7536 80.2142 61.7536 79.6021C61.7536 78.99 61.711 78.365 61.6278 77.7658C61.5554 77.2243 61.451 76.6936 61.3126 76.1735C60.1151 71.6854 56.5654 67.9549 52.0739 66.735C49.5404 66.0458 46.892 66.1978 44.299 66.1957C42.7052 66.1957 41.1137 66.1957 39.5198 66.1957H38.1755C37.9858 66.1957 37.8047 66.1657 37.6343 66.1165C37.4957 66.0737 37.37 66.0116 37.2486 65.9388C37.2443 65.9388 37.2443 65.9346 37.2401 65.9346C37.1761 65.8918 37.1186 65.8511 37.059 65.8082C37.0078 65.7655 36.961 65.7205 36.9162 65.6778C36.8608 65.6243 36.7799 65.5258 36.733 65.4637C36.7159 65.4402 36.6989 65.4167 36.6797 65.391C36.5668 65.2304 36.4816 65.0485 36.4283 64.8538C36.3814 64.7018 36.3601 64.5413 36.3601 64.3722C36.3601 64.1818 36.3899 63.9998 36.4432 63.8308C36.4816 63.7172 36.5263 63.606 36.5816 63.5054C36.6648 63.3534 36.7714 63.21 36.8928 63.0881C37.2209 62.7585 37.6747 62.5551 38.1755 62.5551H65.331V92.9978H76.8346V62.5551H83.0539V92.9978H118.351V81.4427H94.5575V78.2046H118.351V66.6494H94.5575V62.5573L94.5596 62.5551Z" fill="white"/>
</svg>
