<svg width="209" height="35" viewBox="0 0 209 35" fill="none" xmlns="http://www.w3.org/2000/svg">
<path d="M68.7997 9.62928H90.4119L100 0H21.8129C16.6602 0 12.3242 3.52247 11.0671 8.30412C10.9517 8.73752 10.8647 9.17983 10.8043 9.63106C10.7351 10.1305 10.6996 10.6405 10.6996 11.1613C10.6996 11.6821 10.7351 12.1708 10.7972 12.6631C10.8594 13.1232 10.9517 13.578 11.0671 14.0185C12.0259 17.6677 14.858 20.6551 18.4375 21.8019C20.1349 22.3458 21.9531 22.3351 23.7234 22.3423C25.9304 22.3512 28.1445 22.3066 30.348 22.3066C30.7653 22.3066 31.1435 22.476 31.4169 22.7507C31.5181 22.8524 31.6069 22.9719 31.6761 23.0985C31.7223 23.1823 31.7596 23.2751 31.7915 23.3696C31.8377 23.5105 31.8608 23.6621 31.8608 23.8208C31.8608 23.9617 31.843 24.0955 31.804 24.2221C31.7578 24.3844 31.6886 24.536 31.5945 24.6698C31.5803 24.6912 31.5661 24.7108 31.5501 24.7304C31.511 24.7822 31.4435 24.8642 31.3974 24.9088C31.3601 24.9445 31.321 24.9819 31.2784 25.0176C31.2287 25.0533 31.1808 25.0871 31.1275 25.1228C31.1239 25.1228 31.1239 25.1264 31.1204 25.1264C31.0192 25.187 30.9144 25.2387 30.7955 25.2744C30.6552 25.3172 30.5043 25.3404 30.3462 25.3404H9.61825L0 35H30.348C35.5007 35 39.8366 31.474 41.0938 26.6923C41.2092 26.2518 41.2997 25.7988 41.3636 25.3368C41.4276 24.8446 41.4613 24.3452 41.4613 23.8351C41.4613 23.325 41.4258 22.8042 41.3565 22.3048C41.2962 21.8536 41.2092 21.4113 41.0938 20.9779C40.0959 17.2378 37.1378 14.1291 33.3949 13.1125C31.2837 12.5382 29.0767 12.6648 26.9158 12.6631C25.5877 12.6631 24.2614 12.6631 22.9332 12.6631H21.8129C21.6548 12.6631 21.5039 12.6381 21.3619 12.5971C21.2464 12.5614 21.1417 12.5097 21.0405 12.449C21.0369 12.449 21.0369 12.4455 21.0334 12.4455C20.9801 12.4098 20.9322 12.3759 20.8825 12.3402C20.8398 12.3046 20.8008 12.2671 20.7635 12.2315C20.7173 12.1869 20.6499 12.1048 20.6108 12.0531C20.5966 12.0335 20.5824 12.0139 20.5664 11.9925C20.4723 11.8587 20.4013 11.7071 20.3569 11.5448C20.3178 11.4182 20.3001 11.2844 20.3001 11.1435C20.3001 10.9848 20.3249 10.8332 20.3693 10.6923C20.4013 10.5977 20.4386 10.505 20.4847 10.4212C20.554 10.2945 20.6428 10.175 20.744 10.0734C21.0174 9.79872 21.3956 9.62928 21.8129 9.62928H44.4425V34.9982H54.0288V9.62928H59.2116V34.9982H88.6257V25.3689H68.7979V22.6705H88.6257V13.0412H68.7979V9.63106L68.7997 9.62928Z" fill="white"/>
<path d="M118.076 13.956C118.076 14.736 117.83 15.366 117.338 15.846C116.858 16.338 116.228 16.584 115.448 16.584H107.564C106.784 16.584 106.148 16.338 105.656 15.846C105.176 15.366 104.936 14.736 104.936 13.956V11.688H108.536V13.344H114.476V10.644H107.564C106.784 10.644 106.178 10.434 105.746 10.014C105.326 9.582 105.116 8.976 105.116 8.196V4.758C105.116 3.978 105.356 3.348 105.836 2.868C106.328 2.376 106.964 2.13 107.744 2.13H115.358C116.138 2.13 116.768 2.376 117.248 2.868C117.74 3.348 117.986 3.978 117.986 4.758V6.738H114.386V5.37H108.716V7.674H115.628C116.408 7.674 117.008 7.89 117.428 8.322C117.86 8.742 118.076 9.342 118.076 10.122V13.956ZM127.921 16.584H124.303V5.388H119.497V2.148H132.727V5.388H127.921V16.584ZM146.63 16.584H136.64C135.86 16.584 135.224 16.338 134.732 15.846C134.252 15.366 134.012 14.736 134.012 13.956V4.758C134.012 3.978 134.252 3.348 134.732 2.868C135.224 2.376 135.86 2.13 136.64 2.13H146.63V5.37H137.612V7.674H146.342V10.644H137.612V13.344H146.63V16.584ZM161.079 16.584H151.089C150.309 16.584 149.673 16.338 149.181 15.846C148.701 15.366 148.461 14.736 148.461 13.956V4.758C148.461 3.978 148.701 3.348 149.181 2.868C149.673 2.376 150.309 2.13 151.089 2.13H161.079V5.37H152.061V7.674H160.791V10.644H152.061V13.344H161.079V16.584ZM172.918 16.584H165.538C164.758 16.584 164.122 16.338 163.63 15.846C163.15 15.366 162.91 14.736 162.91 13.956V2.13H166.51V13.344H172.918V16.584ZM178.099 16.584H174.319V2.13H178.099V16.584ZM193.24 16.584H189.01L185.824 10.662C185.656 10.35 185.5 10.068 185.356 9.816C185.224 9.552 185.092 9.294 184.96 9.042C184.828 8.79 184.69 8.538 184.546 8.286C184.414 8.034 184.27 7.752 184.114 7.44V16.584H180.19V2.13H184.42L188.434 9.492C188.662 9.888 188.86 10.242 189.028 10.554C189.208 10.866 189.412 11.232 189.64 11.652V2.13H193.24V16.584ZM207.907 16.584H197.917C197.137 16.584 196.501 16.338 196.009 15.846C195.529 15.366 195.289 14.736 195.289 13.956V4.758C195.289 3.978 195.529 3.348 196.009 2.868C196.501 2.376 197.137 2.13 197.917 2.13H207.907V5.37H198.889V7.674H207.619V10.644H198.889V13.344H207.907V16.584Z" fill="white"/>
<path d="M112.5 32.73H111.46V26.08L109.24 32.72H107.94L105.72 26.08V32.73H104.68V24.85H106.32L108.59 31.69L110.86 24.85H112.5V32.73ZM120.58 31.81C120.58 32.0833 120.493 32.3033 120.32 32.47C120.153 32.6433 119.933 32.73 119.66 32.73H114.72C114.446 32.73 114.223 32.6433 114.05 32.47C113.883 32.3033 113.8 32.0833 113.8 31.81V25.77C113.8 25.4967 113.883 25.2767 114.05 25.11C114.223 24.9367 114.446 24.85 114.72 24.85H119.66C119.933 24.85 120.153 24.9367 120.32 25.11C120.493 25.2767 120.58 25.4967 120.58 25.77V31.81ZM119.38 31.81C119.486 31.81 119.54 31.7567 119.54 31.65V25.93C119.54 25.8233 119.486 25.77 119.38 25.77H115C114.893 25.77 114.84 25.8233 114.84 25.93V31.65C114.84 31.7567 114.893 31.81 115 31.81H119.38ZM124.76 32.73H123.72V25.77H121.45V24.85H127.03V25.77H124.76V32.73ZM134.681 31.81C134.681 32.0833 134.595 32.3033 134.421 32.47C134.255 32.6433 134.035 32.73 133.761 32.73H128.821C128.548 32.73 128.325 32.6433 128.151 32.47C127.985 32.3033 127.901 32.0833 127.901 31.81V25.77C127.901 25.4967 127.985 25.2767 128.151 25.11C128.325 24.9367 128.548 24.85 128.821 24.85H133.761C134.035 24.85 134.255 24.9367 134.421 25.11C134.595 25.2767 134.681 25.4967 134.681 25.77V31.81ZM133.481 31.81C133.588 31.81 133.641 31.7567 133.641 31.65V25.93C133.641 25.8233 133.588 25.77 133.481 25.77H129.101C128.995 25.77 128.941 25.8233 128.941 25.93V31.65C128.941 31.7567 128.995 31.81 129.101 31.81H133.481ZM141.929 32.73H140.849L139.109 29.43H137.019V32.73H135.979V24.85H140.579C140.852 24.85 141.072 24.9367 141.239 25.11C141.412 25.2767 141.499 25.4967 141.499 25.77V28.51C141.499 28.7833 141.412 29.0067 141.239 29.18C141.072 29.3467 140.852 29.43 140.579 29.43H140.189L141.929 32.73ZM140.279 28.51C140.332 28.51 140.375 28.4933 140.409 28.46C140.442 28.4267 140.459 28.3833 140.459 28.33V25.95C140.459 25.8967 140.442 25.8533 140.409 25.82C140.375 25.7867 140.332 25.77 140.279 25.77H137.019V28.51H140.279ZM151.697 31.81C151.697 32.0833 151.61 32.3033 151.437 32.47C151.27 32.6433 151.05 32.73 150.777 32.73H146.117C145.844 32.73 145.62 32.6433 145.447 32.47C145.28 32.3033 145.197 32.0833 145.197 31.81V25.77C145.197 25.4967 145.28 25.2767 145.447 25.11C145.62 24.9367 145.844 24.85 146.117 24.85H150.777C151.05 24.85 151.27 24.9367 151.437 25.11C151.61 25.2767 151.697 25.4967 151.697 25.77V27.62H150.657V25.93C150.657 25.8233 150.604 25.77 150.497 25.77H146.397C146.29 25.77 146.237 25.8233 146.237 25.93V31.65C146.237 31.7567 146.29 31.81 146.397 31.81H150.497C150.604 31.81 150.657 31.7567 150.657 31.65V29.34H148.387V28.42H151.697V31.81ZM158.892 32.73H157.812L156.072 29.43H153.982V32.73H152.942V24.85H157.542C157.815 24.85 158.035 24.9367 158.202 25.11C158.375 25.2767 158.462 25.4967 158.462 25.77V28.51C158.462 28.7833 158.375 29.0067 158.202 29.18C158.035 29.3467 157.815 29.43 157.542 29.43H157.152L158.892 32.73ZM157.242 28.51C157.295 28.51 157.338 28.4933 157.372 28.46C157.405 28.4267 157.422 28.3833 157.422 28.33V25.95C157.422 25.8967 157.405 25.8533 157.372 25.82C157.338 25.7867 157.295 25.77 157.242 25.77H153.982V28.51H157.242ZM166.4 31.81C166.4 32.0833 166.313 32.3033 166.14 32.47C165.973 32.6433 165.753 32.73 165.48 32.73H160.54C160.267 32.73 160.043 32.6433 159.87 32.47C159.703 32.3033 159.62 32.0833 159.62 31.81V25.77C159.62 25.4967 159.703 25.2767 159.87 25.11C160.043 24.9367 160.267 24.85 160.54 24.85H165.48C165.753 24.85 165.973 24.9367 166.14 25.11C166.313 25.2767 166.4 25.4967 166.4 25.77V31.81ZM165.2 31.81C165.307 31.81 165.36 31.7567 165.36 31.65V25.93C165.36 25.8233 165.307 25.77 165.2 25.77H160.82C160.713 25.77 160.66 25.8233 160.66 25.93V31.65C160.66 31.7567 160.713 31.81 160.82 31.81H165.2ZM174.038 31.81C174.038 32.0833 173.951 32.3033 173.778 32.47C173.611 32.6433 173.391 32.73 173.118 32.73H168.558C168.284 32.73 168.061 32.6433 167.888 32.47C167.721 32.3033 167.638 32.0833 167.638 31.81V24.85H168.678V31.65C168.678 31.7567 168.731 31.81 168.838 31.81H172.838C172.944 31.81 172.998 31.7567 172.998 31.65V24.85H174.038V31.81ZM180.934 28.96C180.934 29.2333 180.848 29.4567 180.674 29.63C180.508 29.7967 180.288 29.88 180.014 29.88H176.374V32.73H175.334V24.85H180.014C180.288 24.85 180.508 24.9367 180.674 25.11C180.848 25.2767 180.934 25.4967 180.934 25.77V28.96ZM179.714 28.96C179.768 28.96 179.811 28.9433 179.844 28.91C179.878 28.8767 179.894 28.8333 179.894 28.78V25.95C179.894 25.8967 179.878 25.8533 179.844 25.82C179.811 25.7867 179.768 25.77 179.714 25.77H176.374V28.96H179.714Z" fill="white"/>
</svg>
