<svg width="298" height="50" viewBox="0 0 298 50" fill="none" xmlns="http://www.w3.org/2000/svg">
<path d="M98.2853 13.7561H129.16L142.857 0H31.1612C23.8002 0 17.606 5.0321 15.8102 11.863C15.6453 12.4822 15.521 13.114 15.4348 13.7587C15.3358 14.4721 15.2851 15.2008 15.2851 15.9448C15.2851 16.6887 15.3358 17.3869 15.4246 18.0901C15.5134 18.7475 15.6453 19.3972 15.8102 20.0265C17.1799 25.2395 21.2256 29.5072 26.3393 31.1455C28.7642 31.9226 31.3616 31.9074 33.8905 31.9175C37.0434 31.9303 40.2065 31.8666 43.3543 31.8666C43.9504 31.8666 44.4907 32.1086 44.8813 32.501C45.0259 32.6462 45.1527 32.817 45.2516 32.9979C45.3176 33.1176 45.3708 33.2501 45.4165 33.3851C45.4824 33.5864 45.5154 33.803 45.5154 34.0298C45.5154 34.231 45.4901 34.4221 45.4343 34.603C45.3683 34.8349 45.2694 35.0515 45.1349 35.2426C45.1147 35.2731 45.0944 35.3012 45.0715 35.3292C45.0157 35.4031 44.9193 35.5203 44.8534 35.584C44.8001 35.6349 44.7443 35.6884 44.6834 35.7394C44.6124 35.7904 44.5439 35.8388 44.4678 35.8897C44.4628 35.8897 44.4628 35.8948 44.4577 35.8948C44.3131 35.9815 44.1635 36.0553 43.9935 36.1063C43.7931 36.1674 43.5775 36.2006 43.3518 36.2006H13.7404L0 50H43.3543C50.7153 50 56.9095 44.9628 58.7054 38.1319C58.8702 37.5025 58.9996 36.8554 59.0909 36.1955C59.1822 35.4923 59.2304 34.7788 59.2304 34.0501C59.2304 33.3214 59.1797 32.5775 59.0808 31.864C58.9945 31.2194 58.8702 30.5875 58.7054 29.9684C57.2798 24.6255 53.054 20.1845 47.707 18.7322C44.6911 17.9117 41.5381 18.0926 38.4512 18.0901C36.5539 18.0901 34.6591 18.0901 32.7618 18.0901H31.1612C30.9355 18.0901 30.7199 18.0544 30.5169 17.9958C30.3521 17.9449 30.2024 17.871 30.0578 17.7843C30.0528 17.7843 30.0528 17.7792 30.0477 17.7792C29.9716 17.7283 29.9031 17.6799 29.8321 17.6289C29.7712 17.578 29.7154 17.5245 29.6621 17.4735C29.5962 17.4098 29.4998 17.2926 29.444 17.2187C29.4237 17.1907 29.4034 17.1627 29.3806 17.1321C29.2461 16.941 29.1447 16.7244 29.0813 16.4926C29.0255 16.3117 29.0001 16.1206 29.0001 15.9193C29.0001 15.6925 29.0356 15.4759 29.099 15.2747C29.1447 15.1396 29.198 15.0071 29.2639 14.8874C29.3628 14.7065 29.4897 14.5358 29.6342 14.3905C30.0249 13.9982 30.5651 13.7561 31.1612 13.7561H63.4892V49.9975H77.184V13.7561H84.5881V49.9975H126.608V36.2413H98.2828V32.3864H126.608V18.6302H98.2828V13.7587L98.2853 13.7561Z" fill="black"/>
<path d="M297.01 23.6913H282.739C281.625 23.6913 280.716 23.3399 280.013 22.637C279.327 21.9513 278.985 21.0513 278.985 19.937V6.79701C278.985 5.68273 279.327 4.78273 280.013 4.09701C280.716 3.39415 281.625 3.04272 282.739 3.04272H297.01V7.6713H284.127V10.9627H296.599V15.2056H284.127V19.0627H297.01V23.6913Z" fill="black"/>
<path d="M276.058 23.6913H270.015L265.463 15.2313C265.223 14.7856 265.001 14.3827 264.795 14.0227C264.606 13.6456 264.418 13.277 264.229 12.917C264.041 12.557 263.843 12.197 263.638 11.837C263.449 11.477 263.243 11.0742 263.021 10.6284V23.6913H257.415V3.04272H263.458L269.192 13.5599C269.518 14.1256 269.801 14.6313 270.041 15.077C270.298 15.5227 270.589 16.0456 270.915 16.6456V3.04272H276.058V23.6913Z" fill="black"/>
<path d="M254.428 23.6913H249.028V3.04272H254.428V23.6913Z" fill="black"/>
<path d="M247.026 23.6913H236.484C235.369 23.6913 234.461 23.3399 233.758 22.637C233.072 21.9513 232.729 21.0513 232.729 19.937V3.04272H237.872V19.0627H247.026V23.6913Z" fill="black"/>
<path d="M230.113 23.6913H215.842C214.727 23.6913 213.819 23.3399 213.116 22.637C212.43 21.9513 212.087 21.0513 212.087 19.937V6.79701C212.087 5.68273 212.43 4.78273 213.116 4.09701C213.819 3.39415 214.727 3.04272 215.842 3.04272H230.113V7.6713H217.23V10.9627H229.702V15.2056H217.23V19.0627H230.113V23.6913Z" fill="black"/>
<path d="M209.471 23.6913H195.2C194.086 23.6913 193.177 23.3399 192.474 22.637C191.788 21.9513 191.446 21.0513 191.446 19.937V6.79701C191.446 5.68273 191.788 4.78273 192.474 4.09701C193.177 3.39415 194.086 3.04272 195.2 3.04272H209.471V7.6713H196.588V10.9627H209.06V15.2056H196.588V19.0627H209.471V23.6913Z" fill="black"/>
<path d="M182.744 23.6915H177.575V7.69718H170.71V3.0686H189.61V7.69718H182.744V23.6915Z" fill="black"/>
<path d="M168.68 19.937C168.68 21.0513 168.329 21.9513 167.626 22.637C166.94 23.3399 166.04 23.6913 164.926 23.6913H153.663C152.549 23.6913 151.64 23.3399 150.937 22.637C150.252 21.9513 149.909 21.0513 149.909 19.937V16.697H155.052V19.0627H163.537V15.2056H153.663C152.549 15.2056 151.683 14.9056 151.066 14.3056C150.466 13.6884 150.166 12.8227 150.166 11.7084V6.79701C150.166 5.68273 150.509 4.78273 151.194 4.09701C151.897 3.39415 152.806 3.04272 153.92 3.04272H164.797C165.912 3.04272 166.812 3.39415 167.497 4.09701C168.2 4.78273 168.552 5.68273 168.552 6.79701V9.62558H163.409V7.6713H155.309V10.9627H165.183C166.297 10.9627 167.154 11.2713 167.754 11.8884C168.372 12.4884 168.68 13.3456 168.68 14.4599V19.937Z" fill="black"/>
<path d="M258.478 41.3717C258.478 41.7621 258.354 42.0812 258.106 42.3288C257.868 42.5669 257.554 42.686 257.163 42.686H251.963V46.7574H250.478V35.5002H257.163C257.554 35.5002 257.868 35.6241 258.106 35.8717C258.354 36.1098 258.478 36.4241 258.478 36.8145V41.3717ZM256.735 41.3717C256.811 41.3717 256.873 41.3479 256.92 41.3002C256.968 41.2526 256.992 41.1907 256.992 41.1145V37.0717C256.992 36.9955 256.968 36.9336 256.92 36.886C256.873 36.8383 256.811 36.8145 256.735 36.8145H251.963V41.3717H256.735Z" fill="black"/>
<path d="M248.625 45.4431C248.625 45.8336 248.501 46.1479 248.254 46.386C248.016 46.6336 247.701 46.7574 247.311 46.7574H240.797C240.406 46.7574 240.087 46.6336 239.84 46.386C239.601 46.1479 239.482 45.8336 239.482 45.4431V35.5002H240.968V45.2145C240.968 45.3669 241.044 45.4431 241.197 45.4431H246.911C247.063 45.4431 247.14 45.3669 247.14 45.2145V35.5002H248.625V45.4431Z" fill="black"/>
<path d="M237.715 45.4431C237.715 45.8336 237.591 46.1479 237.343 46.386C237.105 46.6336 236.791 46.7574 236.4 46.7574H229.343C228.953 46.7574 228.634 46.6336 228.386 46.386C228.148 46.1479 228.029 45.8336 228.029 45.4431V36.8145C228.029 36.4241 228.148 36.1098 228.386 35.8717C228.634 35.6241 228.953 35.5002 229.343 35.5002H236.4C236.791 35.5002 237.105 35.6241 237.343 35.8717C237.591 36.1098 237.715 36.4241 237.715 36.8145V45.4431ZM236 45.4431C236.153 45.4431 236.229 45.3669 236.229 45.2145V37.0431C236.229 36.8907 236.153 36.8145 236 36.8145H229.743C229.591 36.8145 229.515 36.8907 229.515 37.0431V45.2145C229.515 45.3669 229.591 45.4431 229.743 45.4431H236Z" fill="black"/>
<path d="M226.988 46.7574H225.445L222.959 42.0431H219.974V46.7574H218.488V35.5002H225.059C225.45 35.5002 225.764 35.6241 226.002 35.8717C226.25 36.1098 226.374 36.4241 226.374 36.8145V40.7288C226.374 41.1193 226.25 41.4383 226.002 41.686C225.764 41.9241 225.45 42.0431 225.059 42.0431H224.502L226.988 46.7574ZM224.631 40.7288C224.707 40.7288 224.769 40.705 224.817 40.6574C224.864 40.6098 224.888 40.5479 224.888 40.4717V37.0717C224.888 36.9955 224.864 36.9336 224.817 36.886C224.769 36.8383 224.707 36.8145 224.631 36.8145H219.974V40.7288H224.631Z" fill="black"/>
<path d="M216.71 45.4431C216.71 45.8336 216.586 46.1479 216.339 46.386C216.101 46.6336 215.786 46.7574 215.396 46.7574H208.739C208.348 46.7574 208.029 46.6336 207.781 46.386C207.543 46.1479 207.424 45.8336 207.424 45.4431V36.8145C207.424 36.4241 207.543 36.1098 207.781 35.8717C208.029 35.6241 208.348 35.5002 208.739 35.5002H215.396C215.786 35.5002 216.101 35.6241 216.339 35.8717C216.586 36.1098 216.71 36.4241 216.71 36.8145V39.4574H215.224V37.0431C215.224 36.8907 215.148 36.8145 214.996 36.8145H209.139C208.986 36.8145 208.91 36.8907 208.91 37.0431V45.2145C208.91 45.3669 208.986 45.4431 209.139 45.4431H214.996C215.148 45.4431 215.224 45.3669 215.224 45.2145V41.9145H211.981V40.6002H216.71V45.4431Z" fill="black"/>
<path d="M202.755 46.7574H201.213L198.727 42.0431H195.741V46.7574H194.255V35.5002H200.827C201.217 35.5002 201.532 35.6241 201.77 35.8717C202.017 36.1098 202.141 36.4241 202.141 36.8145V40.7288C202.141 41.1193 202.017 41.4383 201.77 41.686C201.532 41.9241 201.217 42.0431 200.827 42.0431H200.27L202.755 46.7574ZM200.398 40.7288C200.474 40.7288 200.536 40.705 200.584 40.6574C200.632 40.6098 200.655 40.5479 200.655 40.4717V37.0717C200.655 36.9955 200.632 36.9336 200.584 36.886C200.536 36.8383 200.474 36.8145 200.398 36.8145H195.741V40.7288H200.398Z" fill="black"/>
<path d="M192.402 45.4431C192.402 45.8336 192.278 46.1479 192.031 46.386C191.792 46.6336 191.478 46.7574 191.088 46.7574H184.031C183.64 46.7574 183.321 46.6336 183.073 46.386C182.835 46.1479 182.716 45.8336 182.716 45.4431V36.8145C182.716 36.4241 182.835 36.1098 183.073 35.8717C183.321 35.6241 183.64 35.5002 184.031 35.5002H191.088C191.478 35.5002 191.792 35.6241 192.031 35.8717C192.278 36.1098 192.402 36.4241 192.402 36.8145V45.4431ZM190.688 45.4431C190.84 45.4431 190.916 45.3669 190.916 45.2145V37.0431C190.916 36.8907 190.84 36.8145 190.688 36.8145H184.431C184.278 36.8145 184.202 36.8907 184.202 37.0431V45.2145C184.202 45.3669 184.278 45.4431 184.431 45.4431H190.688Z" fill="black"/>
<path d="M178.228 46.7574H176.742V36.8145H173.5V35.5002H181.471V36.8145H178.228V46.7574Z" fill="black"/>
<path d="M172.257 45.4431C172.257 45.8336 172.133 46.1479 171.885 46.386C171.647 46.6336 171.333 46.7574 170.942 46.7574H163.885C163.495 46.7574 163.176 46.6336 162.928 46.386C162.69 46.1479 162.571 45.8336 162.571 45.4431V36.8145C162.571 36.4241 162.69 36.1098 162.928 35.8717C163.176 35.6241 163.495 35.5002 163.885 35.5002H170.942C171.333 35.5002 171.647 35.6241 171.885 35.8717C172.133 36.1098 172.257 36.4241 172.257 36.8145V45.4431ZM170.542 45.4431C170.695 45.4431 170.771 45.3669 170.771 45.2145V37.0431C170.771 36.8907 170.695 36.8145 170.542 36.8145H164.285C164.133 36.8145 164.057 36.8907 164.057 37.0431V45.2145C164.057 45.3669 164.133 45.4431 164.285 45.4431H170.542Z" fill="black"/>
<path d="M160.714 46.7574H159.228V37.2574L156.057 46.7431H154.2L151.028 37.2574V46.7574H149.543V35.5002H151.886L155.128 45.2717L158.371 35.5002H160.714V46.7574Z" fill="black"/>
</svg>
