<svg width="28" height="28" viewBox="0 0 28 28" fill="none" xmlns="http://www.w3.org/2000/svg">
<path d="M28 13.7236H25.5049V4.25879L1.7627 28L0 26.2363L23.7412 2.49512H14.2773V0H28V13.7236ZM20.5146 17.4648C21.838 17.4649 23.1072 17.9911 24.043 18.9268C24.9787 19.8625 25.5048 21.1318 25.5049 22.4551C25.5049 23.4419 25.2122 24.407 24.6641 25.2275C24.1157 26.0482 23.3356 26.6887 22.4238 27.0664C21.5122 27.4439 20.5088 27.5421 19.541 27.3496C18.5732 27.1571 17.6842 26.6821 16.9863 25.9844C16.2884 25.2865 15.8127 24.3967 15.6201 23.4287C15.4277 22.4608 15.5267 21.4576 15.9043 20.5459C16.282 19.6341 16.9216 18.855 17.7422 18.3066C18.5628 17.7583 19.5277 17.4648 20.5146 17.4648ZM21.4697 20.1504C21.014 19.9616 20.5122 19.9126 20.0283 20.0088C19.5443 20.1051 19.0989 20.3425 18.75 20.6914C18.4012 21.0403 18.1636 21.4849 18.0674 21.9688C17.9711 22.4526 18.0203 22.9543 18.209 23.4102C18.3978 23.866 18.7178 24.2561 19.1279 24.5303C19.5382 24.8044 20.0212 24.9502 20.5146 24.9502C21.1763 24.9502 21.8114 24.6876 22.2793 24.2197C22.747 23.7518 23.0098 23.1167 23.0098 22.4551C23.0097 21.9618 22.8629 21.4795 22.5889 21.0693C22.3148 20.6592 21.9254 20.3392 21.4697 20.1504ZM3.63379 2.87402C4.54561 2.49636 5.5496 2.39828 6.51758 2.59082C7.48536 2.78339 8.37448 3.25835 9.07227 3.95605C9.77013 4.65395 10.2459 5.54373 10.4385 6.51172C10.6309 7.47956 10.5319 8.48284 10.1543 9.39453C9.77665 10.3063 9.1369 11.0855 8.31641 11.6338C7.49582 12.1821 6.53085 12.4755 5.54395 12.4756C4.2206 12.4756 2.95145 11.9493 2.01562 11.0137C1.07988 10.0779 0.553832 8.80868 0.553711 7.48535C0.553711 6.49851 0.84634 5.53346 1.39453 4.71289C1.94283 3.89232 2.72203 3.25172 3.63379 2.87402ZM5.54395 4.99023C4.88222 4.99023 4.24722 5.25281 3.7793 5.7207C3.31149 6.18861 3.04883 6.82369 3.04883 7.48535C3.04892 7.97859 3.19477 8.46095 3.46875 8.87109C3.74289 9.28135 4.13302 9.60119 4.58887 9.79004C5.04468 9.97882 5.54638 10.0278 6.03027 9.93164C6.51424 9.83535 6.95967 9.59795 7.30859 9.24902C7.65735 8.90013 7.89497 8.45552 7.99121 7.97168C8.08747 7.48772 8.03745 6.98616 7.84863 6.53027C7.65979 6.07438 7.33997 5.68432 6.92969 5.41016C6.51949 5.13616 6.03723 4.99027 5.54395 4.99023Z" fill="#555555"/>
</svg>
